 
http://www.shotpix.com/images/72456232890345574469.jpg

 
http://www.imdb.com/title/tt2401575/


Director: 
Frank E. Johnson

 Writers: 
John Mowod, Larry Richert, and 1 more credit ┬╗ 

Stars:
 Julianne Michelle, Michael Madsen and Joanna Pacula 

Genres:
 Family 

Language:
English 


Format                                   : AVI
Format/Info                              : Audio Video Interleave
File size                                : 702 MiB
Duration                                 : 1h 31mn
Overall bit rate mode                    : Variable
Overall bit rate                         : 1 070 Kbps

Video
ID                                       : 0
Format                                   : MPEG-4 Visual
Format profile                           : Advanced Simple@L5
Format settings, BVOP                    : 1
Format settings, QPel                    : No
Format settings, GMC                     : No warppoints
Format settings, Matrix                  : Default (H.263)
Codec ID                                 : XVID
Codec ID/Hint                            : XviD
Duration                                 : 1h 31mn
Bit rate                                 : 922 Kbps
Width                                    : 640 pixels
Height                                   : 272 pixels
Display aspect ratio                     : 2.35:1
Frame rate                               : 23.976 fps
Color space                              : YUV
Chroma subsampling                       : 4:2:0
Bit depth                                : 8 bits
Scan type                                : Progressive
Compression mode                         : Lossy
Bits/(Pixel*Frame)                       : 0.221
Stream size                              : 605 MiB (86%)
Writing library                          : XviD 64

Audio
ID                                       : 1
Format                                   : MPEG Audio
Format version                           : Version 1
Format profile                           : Layer 3
Mode                                     : Joint stereo
Mode extension                           : MS Stereo
Codec ID                                 : 55
Codec ID/Hint                            : MP3
Duration                                 : 1h 31mn
Bit rate mode                            : Variable
Bit rate                                 : 135 Kbps
Nominal bit rate                         : 144 Kbps
Channel(s)                               : 2 channels
Sampling rate                            : 48.0 KHz
Compression mode                         : Lossy
Stream size                              : 88.7 MiB (13%)
Alignment                                : Aligned on interleaves
Interleave, duration                     : 24 ms (0.58 video frame)
Interleave, preload duration             : 130 ms
Writing library                          : LAME3.99r
Encoding settings                        : -m j -V 4 -q 2 -lowpass 17.5 --abr 144




 
http://www.shotpix.com/images/10153473007649772012.png
 
http://www.shotpix.com/images/30284569531946696951.png
 
http://www.shotpix.com/images/66524211560636284537.png
 
http://www.shotpix.com/images/17958275776674392926.png
